<svg width="333" height="336" viewBox="0 0 333 336" fill="none" xmlns="http://www.w3.org/2000/svg">
<path fill-rule="evenodd" clip-rule="evenodd" d="M192.56 0.362427L195.826 6.79935L205.154 25.1811L220.884 10.8312L224.624 7.41878L226.495 12.1238L236.552 37.4197L262.352 33.7774L268.35 32.9306L266.088 38.5502L257.138 60.7795L282.926 68.1054L285.815 68.9262L285.442 71.9063L282.08 98.8007L308.489 109.856L311.83 111.254L310.318 114.545L300.663 135.559L317.731 139.894L323.099 141.257L319.564 145.52L310.207 156.804L328.049 174.349L331.992 178.226L326.799 180.13L311.141 185.872L328.369 208.268L332.016 213.009L326.096 213.866L304.44 217.001L308.852 234.374L309.96 238.735H305.46H274.395V272.82V278.374L269.385 275.978L250.024 266.718L243.065 292.524L241.565 298.09L237.319 294.19L226.743 284.478V291.613V296.253L222.281 294.978L215.572 293.061L217.324 308.328L217.986 314.101L212.573 311.987L179.961 299.253L168.1 317.045L165.982 320.221L163.001 317.836L140.506 299.84L113.508 332.114L110.633 335.551L107.995 331.93L93.3425 311.819L80.7992 324.908L76.8645 329.013L74.9718 323.651L64.1451 292.975L43.0992 302.201L38.0925 304.396L38.1947 298.93L38.7992 266.588H14.8477H9.14668L11.7265 261.504L20.9082 243.411L5.9879 241.388L1.51306 240.781L3.21685 236.599L16.7368 203.414L4.95062 197.789L0.248901 195.545L4.10382 192.04L23.6816 174.242L5.86433 154.346L3.23199 151.407L6.46454 149.144L22.9933 137.574L9.48607 125.417L4.98327 121.365L10.7431 119.488L36.8042 110.996L25.4529 87.4205L23.0367 82.4021H28.6064H56.3797L59.0256 60.6467L59.5053 56.7023L63.3576 57.6759L89.7863 64.3557L91.8926 27.6463L92.2298 21.7679L97.2326 24.8731L122.682 40.6691L128.314 24.0394L129.538 20.4269L133.032 21.9556L151.366 29.9768L162.01 6.9165L164.448 1.63323L167.972 6.26331L181.566 24.122L189.528 6.9135L192.56 0.362427ZM165.927 15.1332L156.284 36.0251L154.847 39.1401L151.704 37.765L133.721 29.8975L127.897 47.091L126.483 51.2671L122.736 48.9419L98.5438 33.9257L96.532 68.9881L96.2892 73.2194L92.1801 72.1809L65.4947 65.4362L62.9542 86.3247L62.5799 89.4021H59.4798H34.1762L44.8476 111.566L46.5839 115.172L42.7784 116.412L18.6716 124.267L30.9478 135.315L34.2196 138.26L30.6136 140.784L13.7113 152.616L31.2138 172.16L33.5313 174.748L30.9608 177.085L12.6674 193.715L22.7312 198.518L25.7106 199.94L24.465 202.998L11.4033 235.058L26.7277 237.136L31.6066 237.798L29.3785 242.188L20.5487 259.588H42.3652H45.9312L45.8646 263.154L45.2956 293.595L64.7862 285.051L68.2376 283.538L69.4918 287.092L79.68 315.958L91.182 303.956L94.0753 300.937L96.5377 304.317L111.014 324.186L137.334 292.723L139.531 290.096L142.205 292.235L164.393 309.985L175.698 293.027L177.26 290.684L179.884 291.708L209.707 303.353L208.02 288.656L207.423 283.453L212.459 284.891L219.743 286.972V276.511V268.545L225.61 273.934L237.808 285.135L244.361 260.835L245.456 256.774L249.25 258.588L267.395 267.266V235.235V231.735H270.895H300.96L296.698 214.955L295.741 211.187L299.589 210.63L319.173 207.795L302.686 186.361L299.779 182.582L304.255 180.941L319.197 175.462L303.006 159.541L300.713 157.286L302.766 154.811L310.64 145.315L294.866 141.309L290.793 140.275L292.548 136.456L302.445 114.914L276.926 104.232L274.475 103.206L274.805 100.569L278.124 74.0182L251.482 66.4495L247.738 65.3859L249.191 61.7756L257.332 41.5555L234.806 44.7357L232.081 45.1203L231.064 42.5631L221.861 19.415L206.474 33.4527L203.075 36.553L200.994 32.4509L192.85 16.404L185.478 32.3368L183.038 37.6121L179.517 32.9869L165.927 15.1332ZM135.8 104.513L135.799 104.515L135.799 104.516L135.798 104.517L133.967 108.39L130.546 105.824L130.542 105.821L130.542 105.821C130.535 105.816 130.519 105.804 130.494 105.787C130.445 105.752 130.362 105.693 130.244 105.614C130.01 105.455 129.641 105.215 129.148 104.921C128.16 104.331 126.677 103.525 124.767 102.715C120.942 101.092 115.454 99.4695 108.81 99.4695C102.104 99.4695 91.9872 101.369 83.6638 106.789C75.5227 112.09 69.0202 120.774 69.0202 134.897C69.0202 149.509 74.519 163.424 80.173 173.831C82.9849 179.006 85.7977 183.246 87.9026 186.184C88.954 187.652 89.8261 188.792 90.4293 189.558C90.7309 189.94 90.965 190.229 91.1205 190.419C91.1982 190.513 91.2563 190.583 91.2933 190.627L91.3327 190.674L91.3395 190.682L91.3403 190.683L91.3405 190.684L91.3409 190.684L93.6525 193.398L90.8998 195.654L90.8984 195.655L90.8977 195.656L90.896 195.657L90.8939 195.659L90.8743 195.675C90.8489 195.697 90.8052 195.734 90.7445 195.787C90.6232 195.893 90.4341 196.06 90.1885 196.289C89.6968 196.746 88.9803 197.443 88.1263 198.368C86.4148 200.221 84.1718 202.963 82.0777 206.486C77.8965 213.52 74.3592 223.563 76.6785 235.932C78.8709 247.625 86.6512 252.466 94.315 254.504C98.1972 255.537 101.981 255.814 104.821 255.823C106.233 255.828 107.391 255.767 108.184 255.707C108.58 255.676 108.884 255.646 109.081 255.624L109.167 255.615L109.214 255.609L109.264 255.603L109.294 255.6L109.338 255.594L109.34 255.594C109.339 255.594 109.337 255.594 109.817 259.061C110.296 262.528 110.295 262.529 110.293 262.529L110.289 262.529L110.279 262.531L110.25 262.535C110.227 262.538 110.196 262.542 110.158 262.546C110.081 262.556 109.975 262.568 109.842 262.583C109.574 262.612 109.195 262.65 108.719 262.686C107.767 262.759 106.421 262.829 104.797 262.823C101.566 262.812 97.1486 262.502 92.5155 261.269C83.1486 258.777 72.6398 252.376 69.7984 237.222C67.084 222.746 71.2651 210.976 76.0606 202.909C78.4549 198.881 81.0149 195.75 82.9843 193.618C83.3214 193.253 83.6419 192.917 83.942 192.61C83.4369 191.944 82.8544 191.158 82.2118 190.261C79.9751 187.138 76.9991 182.652 74.0222 177.173C68.0988 166.27 62.0202 151.158 62.0202 134.897C62.0203 118.146 69.9477 107.367 79.8441 100.923C89.558 94.5973 101.086 92.4695 108.81 92.4695C116.596 92.4695 123.021 94.3703 127.501 96.2711C128.994 96.9044 130.277 97.54 131.329 98.11C131.805 97.3027 132.375 96.3762 133.04 95.3574C135.387 91.7598 138.94 86.9775 143.775 82.2301C153.454 72.7275 168.427 63.2333 189.134 63.9473C209.503 64.6497 224.188 72.3795 234.047 83.6146C243.834 94.7666 248.652 109.119 249.884 122.839C251.08 136.164 250.577 146.094 249.523 153.118C248.791 158.002 247.775 161.592 246.816 163.96L247.091 164.128C248.385 164.921 250.265 166.071 252.188 167.607C257.148 171.565 262.644 178.205 264.295 190.123C266 202.443 260.362 212.078 254.661 218.408C251.798 221.586 248.848 224.018 246.618 225.655C245.5 226.477 244.553 227.105 243.875 227.534C243.536 227.749 243.264 227.914 243.07 228.029C242.973 228.087 242.896 228.132 242.84 228.164L242.771 228.203L242.749 228.215L242.742 228.22L242.738 228.222C242.737 228.222 242.736 228.223 241.028 225.168C239.321 222.112 239.32 222.113 239.319 222.114L239.348 222.097C239.378 222.08 239.429 222.05 239.498 222.009C239.637 221.927 239.852 221.797 240.131 221.62C240.689 221.266 241.502 220.728 242.475 220.013C244.43 218.578 246.996 216.459 249.46 213.723C254.414 208.223 258.675 200.575 257.361 191.083C255.991 181.189 251.587 176.083 247.822 173.078C246.275 171.843 244.866 170.978 243.586 170.193C243.225 169.971 242.875 169.756 242.534 169.541C241.896 169.137 240.938 168.52 240.252 167.741C239.879 167.317 239.355 166.594 239.162 165.58C238.945 164.442 239.227 163.391 239.738 162.573C240.209 161.819 241.624 158.589 242.601 152.079C243.561 145.68 244.065 136.314 242.912 123.464C241.779 110.842 237.369 98.0117 228.786 88.2318C220.277 78.5351 207.451 71.5831 188.893 70.9431C170.673 70.3148 157.458 78.6063 148.679 87.225C144.286 91.5383 141.043 95.9005 138.902 99.1824C137.834 100.82 137.045 102.18 136.529 103.119C136.272 103.588 136.083 103.95 135.961 104.189C135.901 104.308 135.857 104.396 135.83 104.451L135.803 104.508L135.8 104.513ZM214.414 248.067C205.018 254.188 191.568 261.061 175.519 263.852C159.728 266.598 144.421 266.592 133.097 265.911C127.426 265.57 122.73 265.058 119.442 264.629C117.798 264.415 116.505 264.222 115.616 264.081C115.172 264.01 114.829 263.953 114.593 263.912C114.476 263.892 114.385 263.876 114.322 263.865L114.249 263.852L114.228 263.848L114.221 263.847L114.219 263.846C114.218 263.846 114.217 263.846 114.85 260.404C115.483 256.961 115.483 256.961 115.483 256.961L115.484 256.961L115.495 256.963L115.548 256.973C115.598 256.982 115.675 256.995 115.778 257.013C115.986 257.049 116.3 257.101 116.714 257.167C117.543 257.299 118.772 257.483 120.347 257.688C123.498 258.099 128.031 258.593 133.517 258.923C144.509 259.585 159.237 259.578 174.32 256.955C189.144 254.377 201.701 247.995 210.594 242.202C215.03 239.312 218.525 236.589 220.9 234.598C222.087 233.603 222.992 232.793 223.593 232.238C223.893 231.961 224.118 231.749 224.263 231.609C224.336 231.539 224.389 231.487 224.421 231.455L224.456 231.422L224.46 231.417C224.46 231.417 224.459 231.418 226.934 233.893C229.409 236.368 229.408 236.368 229.407 236.369L229.405 236.372L229.399 236.377L229.382 236.395L229.323 236.452C229.297 236.479 229.264 236.511 229.224 236.549C229.192 236.58 229.156 236.615 229.115 236.654C228.936 236.827 228.676 237.073 228.338 237.385C227.662 238.008 226.674 238.891 225.397 239.962C222.843 242.103 219.123 245 214.414 248.067ZM148.073 164.092C144.584 163.809 144.584 163.809 144.584 163.808L144.583 163.822C144.582 163.837 144.579 163.864 144.576 163.901C144.569 163.976 144.557 164.092 144.54 164.245C144.506 164.55 144.452 164.999 144.37 165.548C144.205 166.653 143.937 168.122 143.524 169.624C143.104 171.151 142.573 172.567 141.94 173.646C141.281 174.768 140.739 175.143 140.468 175.245L142.926 181.799C145.339 180.894 146.936 178.963 147.977 177.19C149.042 175.374 149.77 173.309 150.273 171.48C150.783 169.626 151.102 167.865 151.293 166.58C151.371 166.059 151.429 165.609 151.47 165.255C151.491 165.299 151.512 165.347 151.536 165.397C151.696 165.746 151.927 166.235 152.222 166.819C152.808 167.979 153.665 169.55 154.732 171.15C155.785 172.728 157.125 174.459 158.707 175.847C160.253 177.203 162.376 178.534 164.952 178.634L165.223 171.639C164.934 171.628 164.301 171.442 163.323 170.585C162.383 169.76 161.434 168.582 160.555 167.265C159.69 165.969 158.974 164.659 158.469 163.661C158.219 163.166 158.026 162.758 157.898 162.478C157.834 162.339 157.786 162.232 157.756 162.163C157.741 162.129 157.73 162.105 157.724 162.09L157.719 162.078C157.719 162.078 157.719 162.079 154.497 163.445C152.66 164.223 151.871 164.558 151.531 164.702C151.536 164.65 151.541 164.603 151.545 164.563C151.55 164.509 151.554 164.466 151.556 164.434L151.56 164.396L151.561 164.383L151.561 164.378L151.561 164.377C151.561 164.376 151.561 164.375 148.073 164.092ZM138.053 152.011C138.053 164.627 127.726 175.885 116.528 175.885C104.116 175.885 93.3262 165.743 93.3262 154.36C93.3262 142.978 104.116 132.836 116.528 132.836C129.234 132.836 138.053 140.895 138.053 152.011ZM145.053 152.011C145.053 167.765 132.282 182.885 116.528 182.885C100.775 182.885 86.3262 170.114 86.3262 154.36C86.3262 138.607 100.775 125.836 116.528 125.836C132.282 125.836 145.053 136.258 145.053 152.011ZM192.369 169.509C211.114 169.509 227.317 153.306 227.317 134.561C227.317 124.851 224.141 117.637 219.151 112.838C214.128 108.007 206.595 104.983 196.732 104.983C178.062 104.983 163.127 120.103 163.127 138.924C163.127 148.833 166.095 156.369 170.847 161.377C175.555 166.338 182.665 169.509 192.369 169.509ZM192.369 176.509C214.98 176.509 234.317 157.172 234.317 134.561C234.317 111.95 219.343 97.983 196.732 97.983C174.121 97.983 156.127 116.313 156.127 138.924C156.127 161.535 169.758 176.509 192.369 176.509ZM214.616 186.299L212.766 186.716C212.637 187.054 212.492 187.432 212.332 187.842C211.658 189.58 210.728 191.91 209.72 194.25C209.079 195.738 208.389 197.267 207.7 198.668C208.034 198.573 208.406 198.513 208.813 198.513C209.822 198.513 210.624 198.879 211.086 199.134C211.591 199.413 212.036 199.755 212.402 200.07C213.136 200.703 213.877 201.514 214.573 202.347C215.98 204.033 217.528 206.213 218.933 208.306C220.351 210.417 221.677 212.519 222.645 214.087C222.748 214.254 222.846 214.414 222.941 214.568L225.546 214.024L226.979 220.875L221.976 221.922L201.871 226.494L143.999 239.655L120.325 245.039L115.962 246.031L114.41 239.205L117.057 238.603C117.203 238.276 117.368 237.908 117.55 237.506C118.288 235.876 119.301 233.685 120.392 231.462C121.476 229.255 122.669 226.95 123.768 225.12C124.25 224.317 124.752 223.539 125.253 222.878C123.662 223.814 121.991 223.584 120.886 223.205C119.729 222.809 118.682 222.102 117.83 221.423C116.09 220.038 114.289 218.053 112.738 216.174C111.155 214.256 109.697 212.279 108.642 210.795C108.53 210.638 108.423 210.486 108.32 210.34L106.672 210.769L104.907 203.995L108.934 202.946L108.99 202.931L109.047 202.918L133.544 197.397L189.586 184.765L209.385 180.302L213.077 179.47L214.616 186.299ZM201.094 205.513C201.747 205.513 202.306 205.355 202.754 205.156C201.998 207.089 201.257 209.35 200.597 211.533C199.782 214.226 199.056 216.907 198.536 218.908C198.419 219.356 198.312 219.772 198.217 220.146L144.45 232.373C144.294 232.202 144.128 232.02 143.951 231.828C142.809 230.586 141.251 228.926 139.609 227.282C137.985 225.655 136.205 223.968 134.631 222.714C133.856 222.097 133.018 221.492 132.199 221.056C131.791 220.839 131.279 220.604 130.703 220.454C130.165 220.315 129.247 220.164 128.223 220.489C127.956 220.573 127.713 220.68 127.495 220.797C127.592 220.677 127.685 220.558 127.774 220.442C128.398 219.632 129.032 218.678 129.649 217.676C130.885 215.669 132.172 213.273 133.323 211.011C134.479 208.737 135.525 206.546 136.28 204.927C136.465 204.529 136.634 204.165 136.782 203.843L188.7 192.14L188.748 192.217C189.586 193.536 190.735 195.307 191.965 197.086C193.183 198.848 194.535 200.697 195.773 202.135C196.385 202.845 197.05 203.551 197.719 204.108C198.053 204.386 198.467 204.694 198.943 204.947C199.38 205.18 200.139 205.513 201.094 205.513ZM215.695 216.171L205.915 218.396C206.322 216.896 206.793 215.226 207.297 213.561C208.014 211.191 208.772 208.919 209.483 207.179C210.593 208.548 211.868 210.342 213.122 212.209C214.042 213.579 214.927 214.953 215.695 216.171ZM134.656 232.227C135.307 232.879 135.947 233.537 136.552 234.17L125.663 236.646C125.988 235.961 126.328 235.255 126.675 234.547C127.731 232.397 128.823 230.299 129.77 228.722C129.905 228.497 130.033 228.289 130.154 228.098C130.192 228.128 130.23 228.158 130.269 228.189C131.529 229.193 133.088 230.657 134.656 232.227ZM115.697 208.595L128.102 205.799C127.777 206.462 127.435 207.146 127.084 207.837C125.969 210.028 124.781 212.232 123.689 214.005C123.182 214.828 122.722 215.517 122.321 216.05C122.297 216.032 122.274 216.013 122.25 215.994C122.23 215.979 122.21 215.963 122.19 215.947C121.035 215.028 119.607 213.5 118.137 211.719C117.274 210.672 116.441 209.594 115.697 208.595ZM197.723 193.106C197.11 192.219 196.516 191.331 195.972 190.501L204.507 188.578C204.124 189.515 203.714 190.498 203.292 191.479C202.396 193.557 201.475 195.548 200.656 197.065C199.756 195.966 198.735 194.569 197.723 193.106Z" fill="black"/>
</svg>
